<svg width="44" height="30" viewBox="0 0 44 30" fill="none" xmlns="http://www.w3.org/2000/svg">
<path fill-rule="evenodd" clip-rule="evenodd" d="M42.342 11.4501L34.746 7.0651V27.4361H43.626V29.4101H0.21V27.4361H4.157V14.8861L0.479 15.8061L0 13.8901L20.81 8.6881H23.89C23.5505 9.49457 23.325 10.3444 23.22 11.2131L22.743 15.1351L27.839 12.1931V27.4361H32.772V7.0661L25.178 11.4501C25.3993 9.61063 26.3025 7.92106 27.709 6.7151H23.645C24.3983 5.70895 25.3958 4.91157 26.5432 4.39834C27.6905 3.88512 28.9498 3.67302 30.202 3.7821L24.685 0.596103C25.7413 0.143947 26.8885 -0.0556016 28.0354 0.0133154C29.1824 0.0822324 30.2974 0.417715 31.292 0.993103C32.2833 1.56308 33.1282 2.35601 33.76 3.3091C34.3914 2.35605 35.236 1.56311 36.227 0.993103C37.2217 0.417703 38.337 0.0822182 39.4841 0.0133019C40.6312 -0.0556144 41.7785 0.143937 42.835 0.596103L37.317 3.7821C38.5693 3.67275 39.8289 3.88472 40.9764 4.39796C42.124 4.91119 43.1217 5.70873 43.875 6.7151H39.809C41.2165 7.92054 42.1204 9.61026 42.342 11.4501ZM23.892 17.5691H17.972V27.4361H23.892V17.5691ZM13.038 19.5421C13.0439 19.805 12.9972 20.0664 12.9007 20.3111C12.8042 20.5557 12.6598 20.7785 12.4759 20.9666C12.2921 21.1546 12.0725 21.304 11.8302 21.406C11.5878 21.508 11.3275 21.5605 11.0645 21.5605C10.8015 21.5605 10.5412 21.508 10.2988 21.406C10.0565 21.304 9.83689 21.1546 9.65305 20.9666C9.46921 20.7785 9.32479 20.5557 9.22827 20.3111C9.13175 20.0664 9.08508 19.805 9.091 19.5421C9.10261 19.0264 9.31563 18.5357 9.68447 18.1751C10.0533 17.8145 10.5487 17.6125 11.0645 17.6125C11.5803 17.6125 12.0757 17.8145 12.4445 18.1751C12.8134 18.5357 13.0264 19.0264 13.038 19.5421Z" fill="#2E59F3"/>
</svg>
